<?xml version="1.0" standalone="no"?><!DOCTYPE svg PUBLIC "-//W3C//DTD SVG 1.1//EN" "http://www.w3.org/Graphics/SVG/1.1/DTD/svg11.dtd"><svg t="1528238504806" class="icon" style="" viewBox="0 0 1024 1024" version="1.1" xmlns="http://www.w3.org/2000/svg" p-id="961" xmlns:xlink="http://www.w3.org/1999/xlink" width="200" height="200"><defs><style type="text/css"></style></defs><path d="M512 512m-477.866667 0a477.866667 477.866667 0 1 0 955.733334 0 477.866667 477.866667 0 1 0-955.733334 0Z" fill="#ECF0F1" p-id="962"></path><path d="M512 870.4C314.368 870.4 153.6 709.614933 153.6 512S314.368 153.6 512 153.6s358.4 160.785067 358.4 358.4-160.768 358.4-358.4 358.4z" fill="#556080" p-id="963"></path><path d="M512 750.933333c-131.754667 0-238.933333-107.178667-238.933333-238.933333s107.178667-238.933333 238.933333-238.933333 238.933333 107.178667 238.933333 238.933333-107.178667 238.933333-238.933333 238.933333z" fill="#E64C3C" p-id="964"></path><path d="M512 631.466667c-65.860267 0-119.466667-53.6064-119.466667-119.466667s53.6064-119.466667 119.466667-119.466667 119.466667 53.6064 119.466667 119.466667-53.6064 119.466667-119.466667 119.466667z" fill="#F3D55B" p-id="965"></path><path d="M512 1024a17.066667 17.066667 0 0 1-17.066667-17.066667V17.066667a17.066667 17.066667 0 1 1 34.133334 0v989.866666a17.066667 17.066667 0 0 1-17.066667 17.066667z" fill="#ECF0F1" p-id="966"></path><path d="M1006.933333 529.066667H17.066667a17.066667 17.066667 0 1 1 0-34.133334h989.866666a17.066667 17.066667 0 1 1 0 34.133334z" fill="#ECF0F1" p-id="967"></path></svg>